<svg class="icon" viewBox="0 0 1024 1024" version="1.1" xmlns="http://www.w3.org/2000/svg" p-id="8557" height="128" width="128"><path d="M512 1.085726c282.16998 0 510.915298 228.744294 510.915298 510.914274 0 282.174074-228.745317 510.915298-510.915298 510.915298-282.172027 0-510.916321-228.741224-510.916321-510.915298C1.083679 229.827973 229.827973 1.085726 512 1.085726z m-0.00307 552.402094c-65.257129 0-118.466899-50.15009-122.439365-113.389263-50.667882-16.085318-84.796099-38.425071-126.998185-58.094v353.580237c0 63.632122 13.284535 68.709757 73.332022 68.709758h352.149658c60.046464 0 73.333046-5.077635 73.333046-68.709758V378.879386c-42.78844 20.905081-76.330303 44.288604-126.999209 60.89376-3.713571 63.37118-56.987808 113.714674-122.377967 113.714674z m176.106552-333.781348H335.957917c-60.050558 0-73.39956 16.803677-73.399561 80.498221v31.524931c39.792205 20.707583 76.201367 47.087341 132.144382 64.866227 15.566503-49.10632 62.196426-84.796099 117.231771-84.796099 54.967806 0 101.534285 35.559819 117.163209 84.599624 56.531415-18.561714 92.222217-46.435496 132.342902-68.384346v-27.872759c0-63.631099-13.354119-80.4358-73.337138-80.435799zM542.932438 351.266547l-24.876524 55.423176c-2.083447 4.689803-3.582588 8.271367-4.560867 10.744694h-0.454347l-30.089235-66.168894h-36.730479l41.160363 73.787393h-31.196451v21.037087h38.099661v18.170812h-38.099661v21.037086h38.099661v30.481161h34.907974v-30.481161h36.862486v-21.037086h-36.862486v-18.170812h36.862486v-21.037087h-30.544606l42.266555-73.787393h-34.84453z" fill="#F3A300" p-id="8558"></path></svg>