<svg t="1513655227090" class="icon" viewBox="0 0 1024 1024" version="1.1" xmlns="http://www.w3.org/2000/svg" p-id="10631" height="200" width="200"><path d="M858 446v275a94.22 94.22 0 0 1-94.35 94.35H261c-52.23 0-95-42.13-95-94.35V446z" fill="#FF6B64" p-id="10632"></path><path d="M763.61 835.43H261c-63.41 0-115-51.32-115-114.4V446a20 20 0 0 1 20-20h692a20 20 0 0 1 20 20v275a114.52 114.52 0 0 1-114.39 114.43zM186.08 466v255c0 41 33.6 74.32 74.91 74.32h502.62A74.4 74.4 0 0 0 837.92 721V466z" fill="#1C4E69" p-id="10633"></path><path d="M763.61 835.43H261c-63.41 0-115-51.32-115-114.4V362.31c0-63.07 51.58-114.39 115-114.39h52.8a20 20 0 0 1 0 40.08H261c-41.31 0-74.91 33.34-74.91 74.31V721c0 41 33.6 74.32 74.91 74.32h502.61A74.4 74.4 0 0 0 837.92 721V362.31A74.39 74.39 0 0 0 763.61 288H710.2a20 20 0 0 1 0-40.08h53.42A114.52 114.52 0 0 1 878 362.31V721a114.52 114.52 0 0 1-114.39 114.43z" fill="#1C4E69" p-id="10634"></path><path d="M551.16 288h-78.33a20 20 0 1 1 0-40.08h78.34a20 20 0 0 1 0 40.08zM393.43 347.35a20 20 0 0 1-20-20V208.61a20 20 0 0 1 40.08 0v118.7a20 20 0 0 1-20.08 20.04zM630.79 347.35a20 20 0 0 1-20-20V208.61a20 20 0 0 1 40.08 0v118.7a20 20 0 0 1-20.08 20.04z" fill="#1C4E69" p-id="10635"></path><path d="M480.88 707.73a39.45 39.45 0 0 1-28.08-11.64L392 635.32A20 20 0 0 1 420.36 607l60.77 60.77 122.5-123A20 20 0 0 1 632 573.08l-123 123a39.46 39.46 0 0 1-28.12 11.65z" fill="#FFFFFF" p-id="10636"></path></svg>