<svg t="1513839767967" class="icon" viewBox="0 0 1024 1024" version="1.1" xmlns="http://www.w3.org/2000/svg" p-id="2443" height="200" width="200"><path d="M1022.077744 458.420104v-14.180407c-5.670083-42.537061-31.194815-76.570036-68.059713-96.422605v-175.820406c-2.831923-56.717467-45.375221-99.254528-102.08853-99.254528H625.057553l-42.537061-42.537061c-39.6989-39.705138-102.08853-39.705138-138.953428 0l-45.375222 42.537061H171.321973c-53.883465 0-96.422605 42.537061-96.422605 99.254528v172.988483C35.196309 361.999578 6.839655 398.864476 1.167492 444.239697v450.901578c-2.838161 70.897874 56.717467 127.611182 130.449343 127.611182h757.175485c73.731876 0 133.283345-56.713309 133.283345-124.773022V458.420104zM145.799321 225.875993c0-42.537061 36.864898-79.401959 82.235961-79.401959h567.174672c45.371063 0 82.242199 36.864898 82.242199 79.401959v241.048196L511.626777 682.449733 145.799321 466.924189V225.875993z m0 0" fill="#1296db" p-id="2444"></path><path d="M330.13005 430.057212l102.08853 85.074121 73.731876 79.408197 76.570036-79.408197 110.596774-93.578207c22.69073-22.69073 36.866977-53.883465 36.866977-87.912282 0-70.897874-56.717467-124.77926-124.779259-124.77926-39.6989 0-73.733955 17.014408-96.418447 45.375222-22.684492-28.360813-56.717467-45.375221-96.416368-45.375222-70.897874 0-124.77926 56.717467-124.779259 124.77926-2.836081 39.70098 14.176248 73.731876 42.53914 96.416368z m0 0" fill="#1296db" p-id="2445"></path></svg>